<?xml version="1.0" ?><!DOCTYPE svg  PUBLIC '-//W3C//DTD SVG 1.1//EN'  'http://www.w3.org/Graphics/SVG/1.1/DTD/svg11.dtd'><svg enable-background="new 0 0 80 80" height="80px" id="Icons" version="1.1" viewBox="0 0 80 80" width="80px" xml:space="preserve" xmlns="http://www.w3.org/2000/svg" xmlns:xlink="http://www.w3.org/1999/xlink"><g fill="#cfa643"><path d="M56.081,35.047v-4c0-8.837-7.163-16-16-16s-16,7.163-16,16v4h-5V67h42V35.047H56.081z M29.081,31.047   c0-6.065,4.935-11,11-11s11,4.935,11,11V35h-22V31.047z M56.081,62h-32V40.047h32V62z"/><path d="M37.5,52.099V57h5v-4.901C43.408,51.366,44,50.258,44,49c0-2.209-1.791-4-4-4s-4,1.791-4,4   C36,50.258,36.592,51.366,37.5,52.099z"/></g></svg>